PathFileType	4	(X/Y/Z)	C:/Users/opensim2020/Desktop/walking_exp_matlab/subject06_walking13_straight_04.trc	
DataRate	CameraRate	NumFrames	NumMarkers	Units	OrigDataRate	OrigDataStartFrame	OrigNumFrames	
100.00	100.00	4	50	mm	100.00	2860	204	
Frame#	Time	LFHD			RFHD			LBHD			RBHD			C7			T10			CLAV			STRN			RBAK			LSHO			LUPA			LELB			LFRM			LWRA			LWRB			LFIN			RSHO			RUPA			RELB			RFRM			RWRA			RWRB			RFIN			LASI			RASI			LPSI			RPSI			LTHI			LKNE			LTIB			LANK			LHEE			LTOE			RTHI			RKNE			RTIB			RANK			RHEE			RTOE			*39			*40			*41			*42			*43			*44			*45			*46			*47			*48			*49			
		X1	Y1	Z1	X2	Y2	Z2	X3	Y3	Z3	X4	Y4	Z4	X5	Y5	Z5	X6	Y6	Z6	X7	Y7	Z7	X8	Y8	Z8	X9	Y9	Z9	X10	Y10	Z10	X11	Y11	Z11	X12	Y12	Z12	X13	Y13	Z13	X14	Y14	Z14	X15	Y15	Z15	X16	Y16	Z16	X17	Y17	Z17	X18	Y18	Z18	X19	Y19	Z19	X20	Y20	Z20	X21	Y21	Z21	X22	Y22	Z22	X23	Y23	Z23	X24	Y24	Z24	X25	Y25	Z25	X26	Y26	Z26	X27	Y27	Z27	X28	Y28	Z28	X29	Y29	Z29	X30	Y30	Z30	X31	Y31	Z31	X32	Y32	Z32	X33	Y33	Z33	X34	Y34	Z34	X35	Y35	Z35	X36	Y36	Z36	X37	Y37	Z37	X38	Y38	Z38	X39	Y39	Z39	X40	Y40	Z40	X41	Y41	Z41	X42	Y42	Z42	X43	Y43	Z43	X44	Y44	Z44	X45	Y45	Z45	X46	Y46	Z46	X47	Y47	Z47	X48	Y48	Z48	X49	Y49	Z49	X50	Y50	Z50	

1	0.000	1495.54517	1301.96863	1680.48254	1365.63342	1311.71338	1659.46838	1509.56165	1434.82703	1626.30493	1382.03076	1443.00635	1611.42896	1457.71423	1439.34143	1462.78052	1452.79016	1471.13342	1134.01563	1457.95532	1326.81580	1388.13831	1469.31506	1285.49854	1213.49390	1380.56213	1508.55029	1291.53052	1618.48889	1382.72339	1423.43286	1701.40369	1349.76685	1227.88171	1721.01868	1326.98804	1118.20117	1745.95557	1254.99585	987.17346	1702.19678	1164.10278	896.27704	1744.71631	1215.67517	873.88361	1747.31018	1148.51953	814.12903	1295.46155	1369.88879	1416.55542	1214.74097	1421.97961	1218.68835	1204.68835	1425.85168	1096.55701	1186.25977	1425.41125	976.18121	1212.29016	1380.55493	829.42639	1175.86487	1436.33484	838.65039	1171.20874	1410.43127	758.10126	1569.34839	1296.52942	975.15869	1347.78516	1282.00488	984.57306	1529.20410	1453.82300	1000.50641	1361.45642	1435.49268	1000.98132	1620.48889	1372.61987	660.70856	1600.43616	1376.86682	496.62091	1596.10339	1444.87109	246.68384	1551.73950	1469.07117	74.96875	1507.17554	1510.64514	63.17620	1550.03015	1326.29248	40.01867	1288.65771	1252.91553	657.81110	1313.05127	1209.63208	540.11719	1319.33740	1312.18970	298.21451	1363.47034	1379.06543	125.29030	1413.16272	1418.25342	107.47621	1348.24756	1245.33142	55.05803	1440.85339	1406.35718	1714.68103																														 
2	0.010	1496.75854	1292.37891	1679.93555	1366.96448	1302.46301	1658.91699	1511.23352	1425.26697	1625.86694	1383.65027	1433.76196	1610.89270	1459.44226	1430.11340	1462.40918	1454.27637	1462.34534	1133.58362	1459.39392	1317.70129	1387.59131	1470.74268	1276.56396	1212.81348	1382.76025	1499.82397	1291.20361	1620.03552	1373.16907	1423.05981	1702.97803	1338.20471	1228.03101	1722.67261	1313.54822	1118.68823	1746.84045	1237.81799	989.26135	1703.51453	1144.16516	901.88086	1745.80566	1195.53235	877.79022	1747.95618	1126.43945	819.73462	1296.93970	1361.15259	1415.89905	1216.47607	1415.42285	1218.56299	1206.49158	1420.49414	1096.49146	1188.18970	1421.37463	976.09180	1214.25061	1378.00024	828.85468	1177.79248	1434.03345	838.78143	1173.80530	1408.93506	757.66064	1570.59192	1288.16565	974.23041	1348.96021	1273.28040	984.32318	1530.14502	1445.19934	999.89008	1362.49268	1426.74963	1000.72461	1620.93945	1365.94421	660.08960	1600.75000	1371.63501	495.97409	1596.24744	1442.57239	246.88995	1551.61646	1468.55005	75.46435	1506.98608	1510.27808	63.99187	1550.04675	1326.12646	39.95270	1289.39087	1243.67297	657.94733	1313.97595	1200.48254	540.27155	1320.35486	1293.49634	293.81201	1364.66724	1350.64294	117.22706	1414.69238	1388.67700	97.85122	1347.65393	1213.73975	53.94978	1442.40930	1396.96960	1714.18958																														 
3	0.020	1498.01038	1282.86340	1679.25867	1368.29431	1293.15869	1658.20117	1512.87781	1415.71045	1625.29138	1385.37024	1424.56653	1610.30664	1461.06763	1420.79333	1461.88879	1455.57605	1453.42310	1132.97607	1460.64893	1308.53491	1386.85901	1472.12207	1267.70837	1212.07996	1384.86401	1491.03918	1290.71240	1621.50171	1363.54297	1422.52771	1704.51807	1326.76123	1227.98376	1724.29309	1300.40601	1119.04980	1748.46106	1221.41650	991.85065	1705.01538	1124.29395	907.78906	1746.29651	1175.52307	881.41370	1748.33704	1104.66321	825.49963	1298.33459	1352.44482	1415.10864	1218.12158	1408.93030	1218.34387	1208.27527	1414.99878	1096.20789	1189.92371	1417.12354	975.84979	1216.19202	1375.12500	828.12073	1179.97314	1430.85400	838.51801	1176.16199	1406.90332	757.10211	1571.75793	1279.76636	973.40460	1350.21289	1264.42285	983.74451	1531.01807	1436.62939	999.26300	1363.40637	1417.96033	1000.29657	1621.38684	1359.33545	659.46118	1601.01868	1366.55347	495.36023	1596.37390	1440.20667	247.03004	1551.52185	1468.04199	76.00784	1506.84094	1509.93433	64.72742	1550.04004	1325.94470	39.90117	1289.88574	1234.84558	657.77386	1314.84119	1191.74475	540.04504	1321.27148	1274.90173	289.42291	1365.50439	1322.02917	110.01490	1416.16858	1358.25244	88.60489	1347.04919	1182.30371	52.96824	1443.93628	1387.50806	1713.58813																														 
4	0.030	1499.18030	1273.29126	1678.46118	1369.44556	1284.06213	1657.48450	1514.42651	1406.12463	1624.56177	1386.91125	1415.30872	1609.57458	1462.53979	1411.38623	1461.25562	1456.72461	1444.61157	1132.38611	1461.81128	1299.33569	1386.03918	1473.29346	1258.78357	1211.18787	1386.79175	1482.20386	1290.08411	1622.90894	1353.85474	1421.84692	1705.95959	1315.53882	1227.78479	1725.80969	1287.49976	1119.23645	1749.49829	1205.20813	994.04266	1705.90332	1105.17871	913.51282	1746.50989	1155.84558	885.02863	1748.32239	1083.25439	831.22766	1299.64917	1343.68579	1414.20764	1219.74207	1402.35059	1218.02856	1209.86877	1409.42957	1095.88843	1191.61816	1412.60254	975.51892	1218.12842	1371.77747	827.62457	1181.67627	1427.42126	838.43365	1178.23889	1404.36035	756.60559	1572.82605	1271.32983	972.53296	1351.24646	1255.50940	983.29962	1531.56531	1428.01282	998.52386	1364.12146	1409.03101	999.69092	1621.83630	1352.77234	658.85431	1601.36597	1361.62915	494.82275	1596.45715	1438.06226	247.23738	1551.39648	1467.59131	76.50191	1506.69702	1509.60889	65.54048	1549.99817	1325.91870	39.82356	1290.36511	1226.42004	657.14435	1315.62317	1183.45679	539.43829	1322.01807	1256.28210	285.03830	1366.19385	1293.13086	103.21763	1416.15503	1328.87805	80.65291	1346.58472	1151.08252	52.47326	1445.40881	1378.05505	1712.83679																														 
